<?xml version="1.0" standalone="no"?><!DOCTYPE svg PUBLIC "-//W3C//DTD SVG 1.1//EN" "http://www.w3.org/Graphics/SVG/1.1/DTD/svg11.dtd"><svg height="500" node-id="1" sillyvg="true" template-height="500" template-width="500" version="1.1" viewBox="0 0 500 500" width="500" xmlns="http://www.w3.org/2000/svg" xmlns:xlink="http://www.w3.org/1999/xlink"><defs node-id="57"></defs><g node-id="154"><g node-id="155"><path d="M 219.80 342.90 C 196.80 342.90 141.80 340.70 128.50 320.60 C 124.90 315.10 124.50 308.70 127.30 301.90 C 133.50 287.30 157.50 277.30 200.70 271.40 C 236.20 266.50 277.80 265.50 306.40 265.50 C 330.50 265.50 347.40 266.20 347.60 266.20 C 348.20 266.20 348.80 266.40 349.40 266.70 C 359.70 272.20 364.60 278.80 363.90 286.40 C 363.00 295.90 353.40 305.40 334.50 315.60 C 315.70 325.70 293.60 333.20 282.10 336.80 C 270.20 340.50 245.20 342.90 219.80 342.90 Z" fill="#d10023" fill-rule="nonzero" group-id="1,2" node-id="64" stroke="none" target-height="77.399994" target-width="240.1" target-x="124.5" target-y="265.5"></path><path d="M 306.40 269.70 C 330.70 269.70 347.40 270.40 347.40 270.40 C 385.90 290.80 325.80 318.90 280.80 332.80 C 269.90 336.20 245.70 338.70 219.80 338.70 C 172.60 338.70 119.80 330.30 131.10 303.50 C 143.50 274.00 247.20 269.70 306.40 269.70 M 306.40 261.40 L 306.40 269.70 L 306.40 261.40 C 277.60 261.40 235.90 262.40 200.10 267.30 C 154.70 273.50 130.30 284.00 123.50 300.30 C 119.20 310.50 122.00 318.20 125.10 322.90 C 131.10 332.00 143.90 338.40 164.20 342.40 C 183.50 346.20 205.10 347.10 219.90 347.10 C 245.70 347.10 271.20 344.60 283.30 340.80 C 294.90 337.20 317.30 329.60 336.50 319.30 C 356.70 308.40 367.00 297.80 368.00 286.80 C 369.10 275.00 359.50 267.40 351.30 263.00 C 350.20 262.40 349.00 262.10 347.80 262.00 C 347.60 262.10 330.50 261.40 306.40 261.40 L 306.40 261.40 Z" fill="#000000" fill-rule="nonzero" group-id="1,2" node-id="66" stroke="none" target-height="85.70001" target-width="266.7" target-x="119.2" target-y="261.4"></path></g><g node-id="156"><g node-id="158"><g node-id="163"><g node-id="168"><path d="M 184.30 167.90 C 184.30 167.90 168.60 124.00 152.10 132.80 C 132.30 143.40 119.30 181.40 122.70 226.40 C 122.70 226.40 80.60 292.10 150.80 309.00 C 221.00 325.90 310.00 313.70 351.70 269.80 C 396.40 222.70 335.20 181.00 335.20 181.00 C 335.20 181.00 306.00 125.60 279.30 122.50 C 257.50 120.00 260.40 161.20 260.40 161.20 C 260.40 161.20 242.30 156.40 222.00 158.10 C 202.70 159.70 184.30 167.90 184.30 167.90 Z" fill="#ffe4a8" fill-rule="nonzero" group-id="1,3,5,10,15" node-id="77" stroke="none" target-height="205.9" target-width="315.8" target-x="80.6" target-y="120"></path></g><g node-id="169"><path d="M 161.60 239.80 C 145.40 240.00 132.10 235.20 122.00 227.60 C 122.30 227.10 122.50 226.70 122.70 226.40 C 122.70 226.40 122.70 226.40 122.70 226.40 C 122.80 226.10 122.90 226.00 122.90 226.00 C 119.80 185.60 130.00 150.90 146.40 136.50 C 148.30 134.90 150.20 133.50 152.30 132.40 C 168.80 123.60 184.50 167.50 184.50 167.50 C 184.50 167.50 200.30 160.50 218.20 158.20 C 234.40 197.10 207.00 239.20 161.60 239.80 Z" fill="#ffa959" fill-rule="nonzero" group-id="1,3,5,10,16" node-id="82" stroke="none" target-height="116.4" target-width="114.59999" target-x="119.8" target-y="123.6"></path><path d="M 348.40 192.00 C 338.50 202.40 320.40 209.60 297.20 213.40 C 264.20 218.70 236.90 190.00 238.60 158.10 C 251.50 158.90 260.90 161.30 260.90 161.30 C 260.90 161.30 257.90 120.00 279.80 122.50 C 280.70 122.60 281.50 122.80 282.40 122.90 C 307.00 128.70 332.90 175.80 335.50 180.50 C 335.60 180.80 335.70 180.90 335.70 180.90 C 335.70 180.90 341.60 185.00 348.40 192.00 Z" fill="#ffa959" fill-rule="nonzero" group-id="1,3,5,10,16" node-id="84" stroke="none" target-height="98.7" target-width="111.5" target-x="236.9" target-y="120"></path><path d="M 122.60 226.40 C 122.70 226.10 122.80 226.00 122.80 226.00 C 119.70 185.60 129.90 150.90 146.30 136.50 C 156.10 133.40 164.40 141.40 162.90 157.90 C 160.50 185.20 129.60 219.10 122.60 226.40 Z" fill="#ff6034" fill-rule="nonzero" group-id="1,3,5,10,16" node-id="86" stroke="none" target-height="93" target-width="44.699997" target-x="119.7" target-y="133.4"></path><path d="M 335.50 180.60 C 321.20 178.50 290.70 171.80 278.10 152.60 C 268.60 138.10 272.90 125.80 282.40 123.00 C 307.00 128.80 332.90 175.80 335.50 180.60 Z" fill="#ff6034" fill-rule="nonzero" group-id="1,3,5,10,16" node-id="88" stroke="none" target-height="57.600006" target-width="66.899994" target-x="268.6" target-y="123"></path></g></g><path d="M 220.00 208.80 C 176.80 232.20 232.10 254.30 248.40 223.00 C 248.40 223.00 267.20 232.10 282.70 224.70 C 300.90 216.00 285.10 201.40 266.30 203.30 C 262.30 203.70 220.00 208.80 220.00 208.80 Z" fill="#ffffe6" fill-rule="nonzero" group-id="1,3,5,11" node-id="94" stroke="none" target-height="52.90001" target-width="124.09999" target-x="176.8" target-y="201.4"></path></g><g node-id="159"><path d="M 238.70 250.00 C 260.70 262.70 276.20 249.90 276.20 249.90" fill="none" group-id="1,3,6" node-id="100" stroke="#ac7a4a" stroke-linecap="round" stroke-width="4.15" target-height="12.800018" target-width="37.500015" target-x="238.7" target-y="249.9"></path><g node-id="165"><path d="M 165.90 197.40 C 168.40 196.20 171.00 195.10 173.60 194.40 C 176.20 193.70 178.90 193.20 181.50 193.00 C 186.80 192.50 192.00 193.00 196.90 194.10 C 201.80 195.20 206.60 196.80 211.00 198.80 C 215.50 200.80 219.80 203.10 223.80 205.90 C 224.30 206.20 224.40 206.90 224.10 207.40 C 223.80 207.80 223.20 208.00 222.70 207.80 L 222.70 207.80 C 218.50 205.80 214.00 204.30 209.50 203.10 C 205.00 201.90 200.40 201.20 195.90 201.00 C 191.40 200.80 187.00 201.20 182.90 202.20 C 180.80 202.70 178.90 203.50 177.00 204.30 C 175.10 205.20 173.40 206.30 171.80 207.40 L 171.70 207.40 C 169.10 209.30 165.40 208.70 163.50 206.10 C 161.60 203.50 162.20 199.80 164.80 197.90 C 165.30 197.70 165.60 197.60 165.90 197.40 Z" fill="#000000" fill-rule="nonzero" group-id="1,3,6,12" node-id="104" stroke="none" target-height="16.800003" target-width="62.799988" target-x="161.6" target-y="192.5"></path></g><g node-id="166"><path d="M 265.70 201.30 C 266.90 199.80 268.00 198.10 269.30 196.60 L 271.30 194.40 C 271.60 194.00 272.00 193.70 272.30 193.30 L 273.40 192.30 L 275.70 190.30 L 278.10 188.50 C 278.90 187.90 279.80 187.40 280.70 186.90 C 281.60 186.40 282.40 185.80 283.40 185.40 C 287.10 183.50 291.10 182.30 295.20 181.60 C 297.30 181.20 299.30 181.10 301.50 181.00 C 302.60 181.00 303.60 181.00 304.70 181.10 C 305.20 181.10 305.80 181.20 306.30 181.20 C 306.60 181.20 306.90 181.30 307.20 181.30 C 307.50 181.30 307.80 181.40 308.20 181.50 L 309.80 181.90 C 312.50 182.50 314.20 185.20 313.60 187.90 C 313.00 190.60 310.30 192.30 307.60 191.70 C 306.90 191.50 306.20 191.20 305.60 190.80 C 305.60 190.80 305.40 190.70 305.20 190.70 C 305.00 190.60 304.90 190.60 304.70 190.50 C 304.30 190.40 303.90 190.30 303.50 190.20 C 302.70 190.00 301.90 189.90 301.10 189.80 C 299.40 189.60 297.70 189.50 296.00 189.50 C 292.60 189.60 289.10 190.10 285.80 191.20 C 284.90 191.40 284.20 191.80 283.30 192.10 C 282.50 192.40 281.70 192.70 280.90 193.20 L 278.50 194.40 L 276.30 195.90 L 275.20 196.60 C 274.80 196.90 274.50 197.20 274.10 197.40 L 272.00 199.10 C 270.60 200.30 269.40 201.60 268.00 202.90 L 267.90 203.00 C 267.30 203.60 266.40 203.50 265.80 203.00 C 265.30 202.70 265.20 201.90 265.70 201.30 Z" fill="#000000" fill-rule="nonzero" group-id="1,3,6,13" node-id="109" stroke="none" target-height="22.600006" target-width="49" target-x="265.2" target-y="181"></path></g><g node-id="167"><path d="M 231.90 207.40 C 235.80 198.70 255.30 197.80 260.90 202.10 C 266.30 206.30 258.70 213.20 250.20 215.00 C 242.70 216.50 229.00 213.80 231.90 207.40 Z" fill="#7c4a1a" fill-rule="nonzero" group-id="1,3,6,14" node-id="114" stroke="#471f05" stroke-linecap="round" stroke-width="4.15" target-height="18.699997" target-width="37.299988" target-x="229" target-y="197.8"></path><g node-id="170"><path d="M 223.20 210.30 C 220.40 212.00 217.70 213.70 215.30 215.70 C 212.90 217.70 210.80 220.00 209.80 222.30 C 209.30 223.50 209.00 224.60 209.10 225.70 C 209.20 226.70 209.50 227.70 210.10 228.70 C 211.40 230.60 213.80 232.20 216.50 233.20 C 222.00 235.10 228.50 235.00 234.10 233.00 C 239.80 231.00 244.50 226.90 247.60 221.50 L 247.80 221.20 C 248.50 220.00 250.10 219.60 251.30 220.30 L 251.30 220.30 C 252.60 220.80 254.10 221.30 255.60 221.80 C 257.10 222.30 258.60 222.60 260.10 222.90 C 263.10 223.60 266.10 224.00 269.10 224.00 C 272.10 224.10 275.10 223.90 277.90 223.20 C 279.30 222.90 280.70 222.40 282.00 221.80 C 283.30 221.20 284.60 220.60 285.70 219.80 C 286.80 219.10 287.80 218.20 288.40 217.30 C 289.00 216.40 289.20 215.60 289.20 214.80 C 289.10 213.10 287.40 210.90 285.10 209.40 C 282.80 207.80 280.00 206.70 277.20 206.10 C 274.30 205.40 271.30 205.20 268.30 205.30 L 268.30 205.30 C 267.00 205.40 265.80 204.30 265.70 203.00 C 265.60 201.70 266.60 200.70 267.80 200.50 C 271.30 200.00 274.80 200.10 278.30 200.60 C 281.80 201.20 285.20 202.40 288.40 204.30 C 290.00 205.30 291.50 206.50 292.90 208.10 C 294.20 209.70 295.30 211.70 295.60 214.20 C 295.90 216.60 295.10 219.10 293.80 220.90 C 292.60 222.70 291.00 224.10 289.50 225.20 C 283.30 229.40 275.80 230.80 268.90 230.40 C 265.40 230.20 262.00 229.60 258.60 228.70 C 256.90 228.30 255.30 227.70 253.70 227.10 C 252.10 226.50 250.60 225.90 248.90 225.00 L 248.90 225.00 L 252.50 223.80 C 250.90 227.10 248.70 230.30 246.00 232.90 C 243.20 235.50 240.00 237.60 236.50 239.00 C 233.00 240.40 229.20 241.10 225.40 241.20 C 221.60 241.30 217.80 240.80 214.20 239.50 C 212.40 238.80 210.60 238.00 208.90 236.80 C 207.20 235.60 205.60 234.20 204.40 232.30 C 203.20 230.50 202.30 228.10 202.30 225.80 C 202.20 223.40 202.90 221.20 203.80 219.30 C 204.70 217.40 205.90 215.80 207.20 214.40 C 208.50 213.00 209.90 211.70 211.30 210.60 C 214.20 208.40 217.30 206.50 220.40 204.90 C 221.90 204.20 223.60 204.80 224.40 206.20 C 225.00 207.80 224.50 209.50 223.20 210.30 L 223.20 210.30 Z" fill="#000000" fill-rule="nonzero" group-id="1,3,6,14,17" node-id="118" stroke="none" target-height="41.300003" target-width="93.7" target-x="202.2" target-y="200"></path></g></g></g><g node-id="160"><path d="M 183.70 166.50 C 183.70 166.50 167.50 121.30 150.60 130.30 C 130.20 141.20 116.80 180.30 120.40 226.60 C 120.40 226.60 77.10 294.20 149.40 311.60 C 221.70 329.10 313.20 316.50 356.10 271.30 C 402.10 222.80 339.10 179.90 339.10 179.90 C 339.10 179.90 309.00 122.90 281.60 119.70 C 259.10 117.10 262.20 159.60 262.20 159.60 C 262.20 159.60 243.60 154.70 222.70 156.40 C 202.60 158.10 183.70 166.50 183.70 166.50 Z" fill="none" group-id="1,3,7" node-id="125" stroke="#000000" stroke-linecap="round" stroke-width="8.2999" target-height="212" target-width="325" target-x="77.1" target-y="117.1"></path><path d="M 120.40 226.60 C 126.70 216.90 131.50 209.10 131.50 209.10" fill="none" group-id="1,3,7" node-id="127" stroke="#000000" stroke-linecap="round" stroke-width="8.2999" target-height="17.5" target-width="11.099998" target-x="120.4" target-y="209.1"></path><path d="M 262.10 159.70 C 269.70 161.80 272.50 162.60 272.50 162.60" fill="none" group-id="1,3,7" node-id="129" stroke="#000000" stroke-linecap="round" stroke-width="8.2999" target-height="2.9000092" target-width="10.399994" target-x="262.1" target-y="159.7"></path></g></g><g node-id="157"><g node-id="161"><path d="M 313.70 361.80 C 313.70 381.57 297.63 397.60 277.80 397.60 C 257.97 397.60 241.90 381.57 241.90 361.80 C 241.90 342.03 257.97 326.00 277.80 326.00 C 297.63 326.00 313.70 342.03 313.70 361.80 Z" fill="#ffb000" fill-rule="nonzero" group-id="1,4,8" node-id="137" stroke="#e37500" stroke-linecap="round" stroke-width="5.5333" target-height="71.600006" target-width="71.80002" target-x="241.9" target-y="326"></path><path d="M 278.90 367.00 C 283.00 364.60 290.80 364.70 292.90 365.80 C 298.80 368.60 290.60 375.70 290.60 375.70 C 290.60 375.70 294.20 387.50 288.30 395.30 L 283.20 396.60 C 283.20 396.60 289.20 385.40 285.20 376.10 C 285.10 376.00 271.70 371.10 278.90 367.00 Z" fill="#e37500" fill-rule="nonzero" group-id="1,4,8" node-id="139" stroke="none" target-height="32" target-width="27.099976" target-x="271.7" target-y="364.6"></path></g><g node-id="162"><path d="M 319.40 326.60 C 328.20 301.20 300.80 282.10 284.70 294.50 C 269.60 306.20 263.20 330.50 263.20 330.50 C 263.20 330.50 311.10 350.60 319.40 326.60 Z" fill="#ffb000" fill-rule="nonzero" group-id="1,4,9" node-id="144" stroke="#e37500" stroke-linecap="round" stroke-width="5.5333" target-height="68.5" target-width="65" target-x="263.2" target-y="282.1"></path><path d="M 224.30 302.70 C 204.30 320.70 219.10 350.70 239.10 347.50 C 258.00 344.50 275.30 326.30 275.30 326.30 C 275.30 326.30 243.20 285.70 224.30 302.70 Z" fill="#ffb000" fill-rule="nonzero" group-id="1,4,9" node-id="146" stroke="#e37500" stroke-linecap="round" stroke-width="5.5333" target-height="65" target-width="70.999985" target-x="204.3" target-y="285.7"></path><path d="M 275.60 323.50 C 275.60 323.50 239.70 308.30 239.80 322.40 C 239.90 336.50 274.80 327.80 274.80 327.80 L 275.60 323.50 Z" fill="#e37500" fill-rule="nonzero" group-id="1,4,9" node-id="148" stroke="none" target-height="28.200012" target-width="35.90001" target-x="239.7" target-y="308.3"></path><path d="M 272.50 323.50 C 272.50 323.50 298.40 296.30 304.60 313.60 C 310.80 330.90 275.40 326.20 275.40 326.20 L 272.50 323.50 Z" fill="#e37500" fill-rule="nonzero" group-id="1,4,9" node-id="150" stroke="none" target-height="34.600006" target-width="38.299988" target-x="272.5" target-y="296.3"></path><path d="M 262.70 313.00 C 278.30 299.60 286.40 321.60 280.40 331.80 C 274.80 341.10 263.80 336.10 263.80 336.10 C 263.80 336.10 271.10 332.70 269.90 324.00 C 268.60 315.00 262.70 313.00 262.70 313.00 Z" fill="#ffb000" fill-rule="nonzero" group-id="1,4,9" node-id="152" stroke="#e37500" stroke-linecap="round" stroke-width="5.5333" target-height="41.5" target-width="23.699982" target-x="262.7" target-y="299.6"></path></g></g></g></svg>