<?xml version="1.0" standalone="no"?><!DOCTYPE svg PUBLIC "-//W3C//DTD SVG 1.1//EN" "http://www.w3.org/Graphics/SVG/1.1/DTD/svg11.dtd"><svg height="600" node-id="1" sillyvg="true" template-height="600" template-width="600" version="1.1" viewBox="0 0 600 600" width="600" xmlns="http://www.w3.org/2000/svg" xmlns:xlink="http://www.w3.org/1999/xlink"><defs node-id="81"><linearGradient gradientTransform="matrix(1 -0.05 0.05 1 -7.06 -26)" gradientUnits="userSpaceOnUse" id="未命名的渐变_8" node-id="13" spreadMethod="pad" x1="373.08" x2="396.16" y1="227.89" y2="399.72"><stop offset="0" stop-color="#ffde3e"></stop><stop offset="1" stop-color="#ff9d3b"></stop></linearGradient><linearGradient gradientTransform="matrix(1.07 -0.03 0.04 1.08 27.42 -32.92)" gradientUnits="userSpaceOnUse" id="未命名的渐变_8-2" node-id="16" spreadMethod="pad" x1="325.38" x2="348.96" y1="221.43" y2="396.98"><stop offset="0" stop-color="#ffde3e"></stop><stop offset="1" stop-color="#ff9d3b"></stop></linearGradient><linearGradient gradientTransform="matrix(0.99981235 0.01937194 -0.01937194 0.99981235 6.76 9.5)" gradientUnits="userSpaceOnUse" id="未命名的渐变_8-3" node-id="17" spreadMethod="pad" x1="375.83" x2="401.48" y1="187.5" y2="378.42"><stop offset="0" stop-color="#ffde3e"></stop><stop offset="1" stop-color="#ff9d3b"></stop></linearGradient><linearGradient gradientTransform="matrix(0.97 -0.05 0.04 0.95 -23.3 -15.11)" gradientUnits="userSpaceOnUse" id="未命名的渐变_8-4" node-id="18" spreadMethod="pad" x1="399.15" x2="425.6" y1="238.92" y2="435.84"><stop offset="0" stop-color="#ffde3e"></stop><stop offset="1" stop-color="#ff9d3b"></stop></linearGradient><linearGradient gradientTransform="matrix(0.99981235 0.01937194 -0.01937194 0.99981235 6.76 9.5)" gradientUnits="userSpaceOnUse" id="未命名的渐变_8-5" node-id="19" spreadMethod="pad" x1="369.22" x2="392.31" y1="199.4" y2="371.22"><stop offset="0" stop-color="#ffde3e"></stop><stop offset="1" stop-color="#ff9d3b"></stop></linearGradient><linearGradient gradientTransform="matrix(0.99981235 0.01937194 -0.01937194 0.99981235 6.76 9.5)" gradientUnits="userSpaceOnUse" id="未命名的渐变_8-6" node-id="20" spreadMethod="pad" x1="373.55" x2="396.63" y1="198.6" y2="370.43"><stop offset="0" stop-color="#ffde3e"></stop><stop offset="1" stop-color="#ff9d3b"></stop></linearGradient><linearGradient gradientUnits="userSpaceOnUse" id="未命名的渐变_8-7" node-id="21" spreadMethod="pad" x1="389.26" x2="412.34" y1="194.79" y2="366.62"><stop offset="0" stop-color="#ffde3e"></stop><stop offset="1" stop-color="#ff9d3b"></stop></linearGradient><linearGradient gradientUnits="userSpaceOnUse" id="未命名的渐变_8-8" node-id="22" spreadMethod="pad" x1="366.15" x2="382.94" y1="261.08" y2="386.09"><stop offset="0" stop-color="#ffde3e"></stop><stop offset="1" stop-color="#ff9d3b"></stop></linearGradient><linearGradient gradientUnits="userSpaceOnUse" id="未命名的渐变_8-9" node-id="23" spreadMethod="pad" x1="453.951" x2="456.552" y1="306.4335" y2="324.70853"><stop offset="0" stop-color="#ffde3e"></stop><stop offset="1" stop-color="#ff9d3b"></stop></linearGradient><linearGradient gradientTransform="matrix(0.99855549 0.05373025 -0.05373025 0.99855549 17.76 27.44)" gradientUnits="userSpaceOnUse" id="未命名的渐变_8-10" node-id="24" spreadMethod="pad" x1="398.59" x2="401.59" y1="327.99" y2="350.27"><stop offset="0" stop-color="#ffde3e"></stop><stop offset="1" stop-color="#ff9d3b"></stop></linearGradient><clipPath id="clip-path" node-id="5"><path d="M 263.86 215.72 C 275.86 212.06 516.05 80.05 541.41 308.85 C 547.61 430.58 425.88 519.05 273.72 452.56 C 196.00 439.00 180.18 439.00 165.52 444.67 C 150.86 450.34 87.19 475.10 111.99 364.67 C 136.79 254.24 263.86 215.72 263.86 215.72 Z" fill="#000000" fill-rule="nonzero" node-id="144" stroke="none" target-height="439" target-width="460.41998" target-x="87.19" target-y="80.05"></path></clipPath><clipPath id="clip-path-2" node-id="7"><path d="M 344.68 285.88 C 344.68 353.08 280.22 407.56 200.71 407.56 C 121.20 407.56 56.74 353.08 56.74 285.88 C 56.74 218.68 121.20 164.20 200.71 164.20 C 280.22 164.20 344.68 218.68 344.68 285.88 Z" fill="#000000" fill-rule="nonzero" node-id="148" stroke="none" target-height="243.36" target-width="287.94" target-x="56.74" target-y="164.2"></path></clipPath><clipPath id="clip-path-3" node-id="9"><path d="M 171.56 422.72 C 171.56 447.29 157.19 467.20 139.47 467.20 C 121.75 467.20 107.38 447.29 107.38 422.72 C 107.38 398.15 121.75 378.24 139.47 378.24 C 157.19 378.24 171.56 398.15 171.56 422.72 Z" fill="#000000" fill-rule="nonzero" node-id="152" stroke="none" target-height="88.96002" target-width="64.18" target-x="107.38" target-y="378.24"></path></clipPath><clipPath id="clip-path-4" node-id="11"><path d="M 413.79 151.31 C 413.79 166.41 394.28 178.65 370.22 178.65 C 346.16 178.65 326.65 166.41 326.65 151.31 C 326.65 136.21 346.16 123.97 370.22 123.97 C 394.28 123.97 413.79 136.21 413.79 151.31 Z" fill="#000000" fill-rule="nonzero" node-id="156" stroke="none" target-height="54.679993" target-width="87.140015" target-x="326.65" target-y="123.97"></path></clipPath></defs><path d="M 435.16 464.78 C 438.39 466.46 561.94 474.32 573.54 433.66 C 585.14 393.00 487.88 361.40 487.88 361.40 Z" fill="#ffffff" fill-rule="nonzero" node-id="160" stroke="#b62725" stroke-linecap="butt" stroke-width="5" target-height="112.92001" target-width="149.98001" target-x="435.16" target-y="361.4"></path><path d="M 400.61 200.34 C 401.71 197.04 480.91 109.59 515.61 129.94 C 550.31 150.29 504.61 236.64 504.61 236.64 Z" fill="#ffffff" fill-rule="nonzero" node-id="162" stroke="#b62725" stroke-linecap="butt" stroke-width="5" target-height="127.05" target-width="149.70001" target-x="400.61" target-y="109.59"></path><path d="M 263.86 215.72 C 275.86 212.06 516.05 80.05 541.41 308.85 C 547.61 430.58 425.88 519.05 273.72 452.56 C 196.00 439.00 180.18 439.00 165.52 444.67 C 150.86 450.34 87.19 475.10 111.99 364.67 C 136.79 254.24 263.86 215.72 263.86 215.72 Z" fill="#ffffff" fill-rule="nonzero" node-id="164" stroke="none" target-height="439" target-width="460.41998" target-x="87.19" target-y="80.05"></path><g node-id="294"><g clip-path="url(#clip-path)" group-id="1" id="sillyvg_g_0" node-id="166"><path d="M 587.17 269.26 C 575.62 262.31 563.63 263.48 551.09 265.85 C 540.88 267.75 530.79 270.23 520.86 273.29 C 499.35 279.98 477.96 289.29 459.68 302.61 C 440.56 316.55 423.78 332.98 411.74 353.56 C 399.05 375.25 393.09 398.97 389.93 423.62 C 387.03 446.22 387.73 469.00 389.33 491.68 C 389.96 500.53 392.60 508.68 399.03 515.09 C 404.77 520.84 414.20 525.16 422.45 524.79 C 426.71 524.63 430.92 523.79 434.92 522.31 C 447.98 533.90 467.77 533.43 480.27 521.24 C 492.64 509.36 499.05 493.42 503.27 477.14 L 504.60 475.23 C 509.61 468.05 514.77 460.98 520.07 454.01 C 538.24 430.80 557.98 408.87 579.16 388.36 C 585.29 382.10 588.77 373.71 588.86 364.94 C 588.85 362.86 588.64 360.80 588.23 358.76 C 589.01 358.11 589.77 357.44 590.51 356.71 C 593.68 353.81 596.04 350.14 597.36 346.05 C 600.53 338.77 600.85 330.56 598.26 323.05 C 600.90 319.67 602.93 315.86 604.26 311.79 C 609.46 295.76 601.23 277.71 587.17 269.26 Z" fill="#ffd364" fill-rule="nonzero" group-id="1" node-id="168" stroke="none" target-height="271.59167" target-width="222.43002" target-x="387.03" target-y="262.31"></path></g></g><path d="M 263.86 215.72 C 275.86 212.06 516.05 80.05 541.41 308.85 C 547.61 430.58 425.88 519.05 273.72 452.56 C 196.00 439.00 180.18 439.00 165.52 444.67 C 150.86 450.34 87.19 475.10 111.99 364.67 C 136.79 254.24 263.86 215.72 263.86 215.72 Z" fill="none" node-id="171" stroke="#b62725" stroke-linecap="butt" stroke-width="5" target-height="439" target-width="460.41998" target-x="87.19" target-y="80.05"></path><path d="M 132.57 195.88 C 132.94 193.31 121.94 142.71 154.94 121.08 C 172.94 113.01 198.21 128.08 214.71 155.54 C 231.21 183.00 132.57 195.88 132.57 195.88 Z" fill="#ffffff" fill-rule="nonzero" node-id="173" stroke="#b62725" stroke-linecap="butt" stroke-width="5" target-height="82.87" target-width="109.270004" target-x="121.94" target-y="113.01"></path><path d="M 143.09 180.66 C 142.60 179.04 145.17 138.77 156.98 131.41 C 168.79 124.05 203.98 152.85 203.16 160.16 C 202.34 167.47 143.09 180.66 143.09 180.66 Z" fill="#cb2525" fill-rule="nonzero" node-id="175" stroke="none" target-height="56.61" target-width="61.37999" target-x="142.6" target-y="124.05"></path><path d="M 89.76 359.92 C 87.38 358.83 35.25 355.08 23.76 316.92 C 21.08 297.20 42.86 276.92 74.20 268.77 C 105.54 260.62 89.76 359.92 89.76 359.92 Z" fill="#ffffff" fill-rule="nonzero" node-id="177" stroke="#b62725" stroke-linecap="butt" stroke-width="5" target-height="99.30002" target-width="84.46" target-x="21.08" target-y="260.62"></path><path d="M 78.25 345.60 C 76.54 345.53 38.83 330.01 35.58 316.42 C 32.33 302.83 71.21 278.79 77.94 281.94 C 84.67 285.09 78.25 345.60 78.25 345.60 Z" fill="#cb2525" fill-rule="nonzero" node-id="179" stroke="none" target-height="66.81" target-width="52.339996" target-x="32.33" target-y="278.79"></path><path d="M 276.30 163.35 L 281.92 167.08 L 287.20 171.08 L 292.15 175.35 L 296.79 179.89 L 301.13 184.71 L 306.14 191.11 L 310.66 197.83 L 314.70 204.89 L 318.25 212.33 L 321.28 219.97 L 323.82 227.85 L 325.86 235.99 L 327.39 244.41 L 328.40 252.88 L 328.89 261.49 L 328.85 270.25 L 328.29 279.20 L 327.21 288.05 L 325.58 296.94 L 323.41 305.89 L 320.67 314.91 L 317.44 323.70 L 313.65 332.44 L 309.26 341.12 L 304.28 349.77 L 298.79 358.10 L 292.99 365.92 L 286.89 373.23 L 280.48 380.06 L 273.65 386.55 L 266.63 392.51 L 259.41 397.95 L 251.99 402.89 L 244.24 407.41 L 236.42 411.37 L 228.51 414.80 L 220.50 417.70 L 212.28 420.10 L 204.09 421.94 L 195.91 423.21 L 187.72 423.93 L 179.48 424.08 L 171.35 423.65 L 163.32 422.63 L 155.36 421.02 L 149.10 419.31 L 142.96 417.19 L 136.93 414.68 L 130.98 411.76 L 125.13 408.41 L 119.51 404.68 L 114.23 400.68 L 109.28 396.42 L 104.64 391.88 L 100.30 387.05 L 95.29 380.66 L 90.77 373.94 L 86.74 366.87 L 83.18 359.44 L 80.15 351.80 L 77.62 343.92 L 75.58 335.77 L 74.04 327.35 L 73.04 318.89 L 72.55 310.28 L 72.58 301.51 L 73.14 292.56 L 74.23 283.71 L 75.85 274.82 L 78.02 265.87 L 80.76 256.85 L 83.99 248.06 L 87.79 239.33 L 92.17 230.64 L 97.16 222.00 L 102.65 213.66 L 108.44 205.85 L 114.54 198.54 L 120.95 191.71 L 127.78 185.21 L 134.80 179.25 L 142.02 173.81 L 149.45 168.88 L 157.19 164.36 L 165.01 160.39 L 172.92 156.97 L 180.94 154.07 L 189.15 151.66 L 197.34 149.83 L 205.53 148.56 L 213.72 147.84 L 221.95 147.68 L 230.08 148.12 L 238.11 149.14 L 246.07 150.75 L 252.33 152.46 L 258.47 154.57 L 264.51 157.08 L 270.45 160.01 L 276.30 163.35 Z" fill="#ffffff" fill-rule="nonzero" group-id="2" node-id="183" stroke="none" target-height="276.4023" target-width="256.33838" target-x="72.5473" target-y="147.68176"></path><g clip-path="url(#clip-path-2)" group-id="3" id="sillyvg_g_1" node-id="186"><path d="M 323.16 155.85 C 322.93 146.23 319.64 136.93 313.76 129.30 C 308.16 122.06 300.17 115.69 290.99 113.60 C 279.68 111.02 267.32 111.70 257.23 118.01 C 253.04 120.62 248.70 123.00 244.23 125.11 C 234.02 128.88 223.48 131.69 212.75 133.48 C 199.20 134.83 185.57 134.83 171.95 134.93 C 164.43 134.99 156.83 135.30 149.33 134.65 C 145.46 134.48 141.59 134.54 137.73 134.81 C 133.42 135.08 129.14 135.70 124.93 136.67 C 119.99 136.95 115.20 138.40 110.93 140.90 C 108.24 142.48 105.80 144.45 103.69 146.74 C 98.90 147.00 94.37 149.03 91.00 152.45 C 85.99 157.51 83.94 164.78 85.57 171.71 C 85.51 177.71 88.24 183.08 90.68 188.54 C 91.95 191.59 93.45 194.53 95.16 197.35 C 99.91 204.71 106.88 211.59 113.62 217.21 C 131.62 232.30 153.04 239.82 176.27 242.21 C 192.27 243.83 208.60 242.00 224.27 238.80 C 240.14 235.52 255.35 229.61 269.27 221.31 C 284.51 212.23 299.03 200.57 310.39 186.88 C 317.60 178.08 323.70 167.81 323.16 155.85 Z" fill="#ffd664" fill-rule="nonzero" group-id="3" node-id="188" stroke="none" target-height="132.81" target-width="239.75931" target-x="83.9407" target-y="111.02"></path></g><path d="M 276.30 163.35 L 281.92 167.08 L 287.20 171.08 L 292.15 175.35 L 296.79 179.89 L 301.13 184.71 L 306.14 191.11 L 310.66 197.83 L 314.70 204.89 L 318.25 212.33 L 321.28 219.97 L 323.82 227.85 L 325.86 235.99 L 327.39 244.41 L 328.40 252.88 L 328.89 261.49 L 328.85 270.25 L 328.29 279.20 L 327.21 288.05 L 325.58 296.94 L 323.41 305.89 L 320.67 314.91 L 317.44 323.70 L 313.65 332.44 L 309.26 341.12 L 304.28 349.77 L 298.79 358.10 L 292.99 365.92 L 286.89 373.23 L 280.48 380.06 L 273.65 386.55 L 266.63 392.51 L 259.41 397.95 L 251.99 402.89 L 244.24 407.41 L 236.42 411.37 L 228.51 414.80 L 220.50 417.70 L 212.28 420.10 L 204.09 421.94 L 195.91 423.21 L 187.72 423.93 L 179.48 424.08 L 171.35 423.65 L 163.32 422.63 L 155.36 421.02 L 149.10 419.31 L 142.96 417.19 L 136.93 414.68 L 130.98 411.76 L 125.13 408.41 L 119.51 404.68 L 114.23 400.68 L 109.28 396.42 L 104.64 391.88 L 100.30 387.05 L 95.29 380.66 L 90.77 373.94 L 86.74 366.87 L 83.18 359.44 L 80.15 351.80 L 77.62 343.92 L 75.58 335.77 L 74.04 327.35 L 73.04 318.89 L 72.55 310.28 L 72.58 301.51 L 73.14 292.56 L 74.23 283.71 L 75.85 274.82 L 78.02 265.87 L 80.76 256.85 L 83.99 248.06 L 87.79 239.33 L 92.17 230.64 L 97.16 222.00 L 102.65 213.66 L 108.44 205.85 L 114.54 198.54 L 120.95 191.71 L 127.78 185.21 L 134.80 179.25 L 142.02 173.81 L 149.45 168.88 L 157.19 164.36 L 165.01 160.39 L 172.92 156.97 L 180.94 154.07 L 189.15 151.66 L 197.34 149.83 L 205.53 148.56 L 213.72 147.84 L 221.95 147.68 L 230.08 148.12 L 238.11 149.14 L 246.07 150.75 L 252.33 152.46 L 258.47 154.57 L 264.51 157.08 L 270.45 160.01 L 276.30 163.35 Z" fill="none" group-id="4" node-id="193" stroke="#b62725" stroke-linecap="butt" stroke-width="5" target-height="276.4023" target-width="256.33838" target-x="72.5473" target-y="147.68176"></path><path d="M 342.10 270.47 C 346.59 339.86 346.42 378.85 346.22 420.66 C 375.70 426.51 406.01 426.90 435.63 421.82 C 436.80 421.73 437.92 421.30 438.85 420.57 C 439.71 419.53 440.18 418.21 440.17 416.86 C 441.39 404.75 440.36 320.50 435.92 274.35 C 433.28 246.96 429.92 197.87 424.72 170.85 C 423.86 166.40 422.62 156.72 417.94 155.59 C 416.15 155.16 394.57 155.86 378.94 157.97 C 369.40 159.26 338.38 162.81 333.24 167.70 C 327.75 173.00 338.64 217.11 342.10 270.47 Z" fill="#d93729" fill-rule="nonzero" node-id="196" stroke="#ffffff" stroke-linecap="butt" stroke-width="5" target-height="271.74155" target-width="113.640015" target-x="327.75" target-y="155.16"></path><path d="M 95.90 350.23 C 95.55 351.00 97.62 299.92 150.01 299.64 C 156.88 301.33 154.30 307.51 148.57 308.91 C 142.84 310.31 114.80 308.91 95.90 350.23 Z" fill="#040000" fill-rule="nonzero" node-id="198" stroke="none" target-height="51.359985" target-width="61.33" target-x="95.55" target-y="299.64"></path><path d="M 207.56 183.51 C 208.23 182.80 154.63 210.32 176.81 258.24 C 181.55 263.66 187.04 258.24 186.09 252.24 C 185.14 246.24 171.59 221.47 207.56 183.51 Z" fill="#040000" fill-rule="nonzero" node-id="200" stroke="none" target-height="80.86" target-width="53.59999" target-x="154.63" target-y="182.8"></path><path d="M 192.21 300.30 C 192.21 300.30 185.94 306.71 180.38 305.44 C 174.82 304.17 177.28 296.35 179.57 292.87 C 181.86 289.39 188.90 283.16 191.38 287.40 C 193.86 291.64 194.00 297.43 192.21 300.30 Z" fill="#040000" fill-rule="nonzero" node-id="202" stroke="none" target-height="23.549988" target-width="19.179993" target-x="174.82" target-y="283.16"></path><path d="M 229.56 260.87 C 229.45 260.31 228.56 260.34 228.64 260.93 C 228.87 263.09 228.84 265.27 228.58 267.43 C 228.40 269.57 228.03 271.69 227.47 273.76 C 226.39 277.88 224.49 281.75 221.88 285.12 C 216.69 291.60 209.22 295.85 201.00 297.00 C 199.83 297.15 198.66 297.25 197.48 297.28 C 196.44 297.32 195.40 297.29 194.36 297.20 C 193.50 297.12 192.65 296.99 191.81 296.81 C 191.05 296.20 190.22 295.68 189.34 295.26 C 188.85 295.04 188.31 294.93 187.77 294.96 C 186.71 294.52 185.48 294.82 184.75 295.70 C 184.01 296.58 183.93 297.84 184.55 298.81 C 184.55 298.87 184.65 298.92 184.69 298.98 C 184.94 299.91 185.55 300.69 186.38 301.17 L 187.01 301.56 L 187.28 301.74 L 187.62 302.00 L 188.07 302.38 C 188.30 302.58 188.51 302.80 188.72 303.01 L 188.90 303.19 L 188.90 303.19 L 188.90 303.19 C 189.09 303.42 189.27 303.65 189.44 303.89 C 189.70 304.25 189.95 304.62 190.17 305.00 C 190.27 305.17 190.36 305.35 190.47 305.52 L 190.47 305.57 L 190.52 305.68 C 190.89 306.51 191.20 307.37 191.44 308.25 C 191.50 308.44 191.54 308.64 191.59 308.84 C 191.64 309.04 191.65 309.12 191.65 309.14 C 191.73 309.68 191.80 310.21 191.85 310.75 C 191.94 311.89 191.98 313.04 191.95 314.18 C 191.95 314.18 191.95 314.46 191.95 314.53 L 191.89 315.14 C 191.89 315.68 191.77 316.22 191.69 316.76 C 191.54 317.76 191.34 318.76 191.11 319.76 C 190.28 323.27 188.87 326.61 186.94 329.65 C 185.04 332.71 182.58 335.39 179.69 337.55 C 178.00 338.81 176.20 339.92 174.33 340.89 C 173.40 341.36 172.43 341.77 171.45 342.12 C 170.42 342.57 169.35 342.93 168.26 343.19 C 167.69 343.23 167.26 343.72 167.30 344.29 C 167.33 344.85 167.82 345.29 168.39 345.25 C 169.45 345.25 170.53 345.25 171.58 345.17 C 172.68 345.05 173.77 344.85 174.84 344.56 C 177.00 344.02 179.09 343.22 181.05 342.17 C 184.90 340.06 188.27 337.16 190.91 333.65 C 193.55 330.14 195.56 326.20 196.85 322.00 C 198.47 317.24 198.84 312.14 197.93 307.20 C 197.59 305.58 197.04 304.02 196.30 302.54 C 197.20 302.54 198.10 302.47 198.99 302.38 C 203.86 301.89 208.58 300.40 212.84 298.00 C 221.08 293.34 227.06 285.53 229.43 276.37 C 230.08 273.90 230.44 271.36 230.52 268.80 C 230.49 266.13 230.17 263.47 229.56 260.87 Z" fill="#090909" fill-rule="nonzero" node-id="204" stroke="none" target-height="84.97589" target-width="63.26091" target-x="167.2591" target-y="260.31"></path><path d="M 188.67 303.00 L 188.85 303.18 L 188.85 303.18 Z" fill="#090909" fill-rule="nonzero" node-id="206" stroke="none" target-height="0.17999268" target-width="0.18000793" target-x="188.67" target-y="303"></path><path d="M 240.36 169.13 C 238.61 175.44 236.72 181.67 234.50 187.84 C 232.28 194.01 230.28 200.23 228.23 206.44 L 226.56 211.56 C 226.29 212.38 226.05 213.24 225.74 214.04 C 225.50 214.53 225.31 215.04 225.16 215.56 C 225.03 216.32 225.16 217.11 225.53 217.79 C 226.18 218.89 227.60 219.27 228.71 218.62 C 230.42 217.53 230.49 215.39 231.00 213.62 C 231.43 212.08 231.86 210.54 232.28 208.99 C 233.13 205.84 233.98 202.68 234.73 199.50 C 236.23 193.13 237.56 186.73 238.98 180.35 C 239.78 176.72 240.76 173.13 241.65 169.52 C 241.76 169.16 241.56 168.79 241.20 168.68 C 240.84 168.57 240.47 168.77 240.36 169.13 Z" fill="#090909" fill-rule="nonzero" node-id="208" stroke="none" target-height="50.69304" target-width="16.731491" target-x="225.0262" target-y="168.57231"></path><path d="M 259.06 179.12 C 255.14 185.79 251.16 192.45 247.11 199.12 C 245.11 202.42 243.11 205.77 241.11 209.12 C 240.12 210.79 239.13 212.46 238.16 214.12 L 236.78 216.46 C 236.09 217.32 235.54 218.28 235.15 219.31 C 234.91 220.28 235.34 221.29 236.20 221.79 C 237.07 222.29 238.15 222.16 238.88 221.48 C 239.57 220.62 240.10 219.65 240.46 218.61 L 241.73 216.20 L 244.43 211.05 C 246.24 207.61 248.04 204.18 249.79 200.71 C 253.27 193.77 256.83 186.87 260.46 180.01 C 260.62 179.63 260.49 179.19 260.14 178.97 C 259.79 178.75 259.33 178.81 259.06 179.12 Z" fill="#090909" fill-rule="nonzero" node-id="210" stroke="none" target-height="43.54309" target-width="25.710083" target-x="234.9136" target-y="178.74657"></path><path d="M 276.41 194.86 C 273.80 197.37 271.03 199.70 268.34 202.12 C 265.65 204.54 263.16 206.79 260.57 209.12 C 257.98 211.45 255.45 213.85 252.90 216.23 C 250.35 218.61 247.46 221.05 245.00 223.66 C 244.10 224.57 244.11 226.04 245.01 226.94 C 245.91 227.85 247.38 227.86 248.29 226.96 C 250.94 224.52 253.29 221.74 255.80 219.13 C 258.31 216.52 260.62 214.13 262.98 211.53 L 270.06 203.82 C 272.50 201.15 274.85 198.41 277.38 195.82 C 277.58 195.54 277.55 195.16 277.31 194.92 C 277.07 194.68 276.68 194.66 276.41 194.86 Z" fill="#090909" fill-rule="nonzero" node-id="212" stroke="none" target-height="33.20009" target-width="33.48001" target-x="244.1016" target-y="194.65556"></path><path d="M 136.80 365.59 C 136.06 364.64 134.74 364.37 133.69 364.97 C 132.16 365.81 130.86 367.36 129.51 368.47 C 128.16 369.58 126.89 370.47 125.51 371.47 C 122.78 373.47 120.03 375.35 117.20 377.17 C 111.46 380.88 105.53 384.33 99.47 387.50 C 98.69 387.91 99.38 389.03 100.16 388.67 C 106.47 385.80 112.90 383.19 119.10 380.06 C 122.16 378.56 125.13 376.89 128.01 375.06 C 129.41 374.15 130.79 373.20 132.14 372.22 C 132.81 371.73 133.49 371.22 134.14 370.75 C 135.03 370.19 135.84 369.52 136.56 368.75 C 137.41 367.90 137.51 366.56 136.80 365.59 Z" fill="#090909" fill-rule="nonzero" node-id="214" stroke="none" target-height="24.655975" target-width="38.81801" target-x="98.69" target-y="364.37402"></path><path d="M 141.91 373.73 C 140.74 373.06 139.25 373.45 138.56 374.61 C 135.88 380.61 132.13 386.07 127.50 390.72 C 125.14 393.13 122.65 395.42 120.04 397.56 C 117.36 399.80 114.77 402.12 111.94 404.19 C 111.42 404.57 111.94 405.44 112.47 405.08 C 115.47 403.22 118.58 401.66 121.47 399.74 C 124.48 397.79 127.34 395.64 130.04 393.29 C 135.16 388.65 139.46 383.17 142.76 377.09 C 143.42 375.92 143.05 374.44 141.91 373.73 Z" fill="#090909" fill-rule="nonzero" node-id="216" stroke="none" target-height="32.379913" target-width="31.999496" target-x="111.42" target-y="373.0601"></path><path d="M 151.00 378.92 C 149.00 385.12 146.55 391.16 143.66 397.00 C 142.21 399.93 140.55 402.73 138.98 405.59 C 137.49 408.54 135.82 411.39 133.98 414.14 C 133.43 414.91 134.68 415.88 135.29 415.14 C 137.50 412.51 139.85 410.03 141.93 407.29 C 143.89 404.60 145.66 401.79 147.25 398.87 C 150.62 392.92 153.39 386.66 155.52 380.17 C 156.47 377.30 151.91 376.05 151.00 378.92 Z" fill="#090909" fill-rule="nonzero" node-id="218" stroke="none" target-height="39.830017" target-width="23.040009" target-x="133.43" target-y="376.05"></path><path d="M 148.69 391.94 L 154.48 394.00 L 159.75 396.46 L 164.55 399.33 L 169.02 402.66 L 172.86 406.20 L 176.12 409.97 L 178.26 413.06 L 180.00 416.16 L 181.34 419.30 L 182.32 422.48 L 182.92 425.76 L 183.07 429.00 L 182.80 432.22 L 182.08 435.45 L 180.90 438.54 L 179.36 441.38 L 177.45 444.00 L 175.15 446.41 L 172.59 448.53 L 169.74 450.41 L 166.58 452.05 L 163.09 453.44 L 158.30 454.80 L 153.14 455.65 L 147.57 455.97 L 142.00 455.73 L 136.24 454.89 L 130.26 453.42 L 124.47 451.36 L 119.20 448.90 L 114.40 446.03 L 109.93 442.70 L 106.09 439.16 L 102.83 435.39 L 100.68 432.30 L 98.95 429.20 L 97.61 426.06 L 96.63 422.88 L 96.03 419.60 L 95.88 416.36 L 96.15 413.14 L 96.87 409.91 L 98.04 406.82 L 99.58 403.98 L 101.50 401.37 L 103.80 398.95 L 106.36 396.83 L 109.21 394.95 L 112.37 393.31 L 115.86 391.92 L 120.65 390.56 L 125.81 389.71 L 131.38 389.39 L 136.95 389.63 L 142.71 390.47 L 148.69 391.94 Z" fill="#ffffff" fill-rule="nonzero" group-id="5" node-id="222" stroke="none" target-height="66.58707" target-width="87.197845" target-x="95.87573" target-y="389.3867"></path><g clip-path="url(#clip-path-3)" group-id="6" id="sillyvg_g_2" node-id="225"><path d="M 156.64 373.24 C 151.19 371.91 145.55 375.50 140.87 377.87 C 135.76 380.35 131.05 383.57 126.87 387.41 C 119.37 394.59 114.64 403.77 114.98 414.00 C 115.07 414.74 115.69 415.29 116.43 415.29 C 117.17 415.29 117.79 414.74 117.88 414.00 C 118.48 404.25 125.38 396.09 133.43 390.47 C 137.38 387.83 141.55 385.53 145.89 383.60 C 150.18 381.60 155.43 380.51 157.96 376.41 C 158.30 375.83 158.35 375.12 158.09 374.50 C 157.83 373.87 157.29 373.41 156.64 373.24 Z" fill="#b62725" fill-rule="nonzero" group-id="6" node-id="227" stroke="none" target-height="43.379395" target-width="43.709595" target-x="114.64" target-y="371.91"></path><path d="M 176.15 383.00 C 166.67 379.00 153.55 385.59 146.15 391.00 C 137.81 397.15 129.87 406.37 132.00 417.00 C 132.31 418.58 135.17 418.24 135.00 416.61 C 134.07 407.46 143.58 399.37 151.00 394.82 C 154.64 392.58 158.59 390.86 162.71 389.72 C 166.89 388.58 171.38 388.93 175.46 387.63 C 177.48 387.05 178.42 384.00 176.15 383.00 Z" fill="#b62725" fill-rule="nonzero" group-id="6" node-id="229" stroke="none" target-height="39.579987" target-width="48.550003" target-x="129.87" target-y="379"></path><path d="M 164.80 397.47 C 156.66 401.58 145.11 410.91 148.05 420.73 C 148.46 422.09 150.43 421.48 150.23 420.16 C 149.53 415.44 154.72 411.56 158.13 408.91 C 161.24 406.53 164.63 404.55 168.23 403.01 C 171.63 401.53 175.20 400.48 178.86 399.90 C 180.82 399.54 182.82 399.39 184.81 399.45 C 186.18 399.66 187.58 399.70 188.96 399.57 C 189.67 399.41 190.23 398.88 190.43 398.18 C 192.46 387.40 169.00 395.35 164.80 397.47 Z" fill="#b62725" fill-rule="nonzero" group-id="6" node-id="231" stroke="none" target-height="34.690002" target-width="47.350006" target-x="145.11" target-y="387.4"></path></g><path d="M 148.69 391.94 L 154.48 394.00 L 159.75 396.46 L 164.55 399.33 L 169.02 402.66 L 172.86 406.20 L 176.12 409.97 L 178.26 413.06 L 180.00 416.16 L 181.34 419.30 L 182.32 422.48 L 182.92 425.76 L 183.07 429.00 L 182.80 432.22 L 182.08 435.45 L 180.90 438.54 L 179.36 441.38 L 177.45 444.00 L 175.15 446.41 L 172.59 448.53 L 169.74 450.41 L 166.58 452.05 L 163.09 453.44 L 158.30 454.80 L 153.14 455.65 L 147.57 455.97 L 142.00 455.73 L 136.24 454.89 L 130.26 453.42 L 124.47 451.36 L 119.20 448.90 L 114.40 446.03 L 109.93 442.70 L 106.09 439.16 L 102.83 435.39 L 100.68 432.30 L 98.95 429.20 L 97.61 426.06 L 96.63 422.88 L 96.03 419.60 L 95.88 416.36 L 96.15 413.14 L 96.87 409.91 L 98.04 406.82 L 99.58 403.98 L 101.50 401.37 L 103.80 398.95 L 106.36 396.83 L 109.21 394.95 L 112.37 393.31 L 115.86 391.92 L 120.65 390.56 L 125.81 389.71 L 131.38 389.39 L 136.95 389.63 L 142.71 390.47 L 148.69 391.94 Z" fill="none" group-id="7" node-id="236" stroke="#b62725" stroke-linecap="butt" stroke-width="5" target-height="66.58707" target-width="87.197845" target-x="95.87573" target-y="389.3867"></path><path d="M 327.23 157.41 L 415.80 146.69 L 418.41 146.62 L 420.84 146.98 L 423.15 147.75 L 425.29 148.91 L 427.17 150.39 L 428.81 152.19 L 430.12 154.25 L 431.05 156.53 L 431.60 159.07 L 431.60 159.07 L 431.67 161.67 L 431.31 164.10 L 430.53 166.41 L 429.37 168.56 L 427.90 170.43 L 426.09 172.07 L 424.03 173.38 L 421.76 174.31 L 419.21 174.86 L 330.64 185.57 L 328.04 185.65 L 325.60 185.29 L 323.30 184.51 L 321.15 183.35 L 319.27 181.88 L 317.63 180.07 L 316.33 178.02 L 315.40 175.74 L 314.85 173.20 L 314.85 173.20 L 314.78 170.60 L 315.13 168.16 L 315.91 165.86 L 317.07 163.71 L 318.55 161.83 L 320.35 160.19 L 322.41 158.89 L 324.69 157.96 L 327.23 157.41 Z" fill="#d93729" fill-rule="nonzero" group-id="8" node-id="241" stroke="#ffffff" stroke-linecap="butt" stroke-width="4.9999995" target-height="39.026794" target-width="116.89154" target-x="314.77637" target-y="146.61987"></path><path d="M 413.56 146.94 L 413.61 149.75 L 413.25 152.48 L 412.46 155.18 L 411.23 157.88 L 409.09 161.19 L 406.32 164.38 L 402.82 167.46 L 398.98 170.13 L 394.60 172.54 L 389.63 174.69 L 384.48 176.38 L 378.94 177.67 L 372.97 178.54 L 366.95 178.89 L 361.26 178.73 L 355.88 178.11 L 350.58 177.01 L 345.81 175.52 L 341.51 173.68 L 337.47 171.37 L 334.11 168.80 L 331.35 165.98 L 329.60 163.59 L 328.29 161.10 L 327.38 158.49 L 326.87 155.73 L 326.82 152.93 L 327.19 150.20 L 327.97 147.50 L 329.20 144.80 L 331.34 141.49 L 334.12 138.29 L 337.61 135.21 L 341.45 132.55 L 345.83 130.13 L 350.80 127.99 L 355.95 126.30 L 361.49 125.01 L 367.46 124.14 L 373.48 123.79 L 379.17 123.94 L 384.55 124.57 L 389.85 125.67 L 394.62 127.16 L 398.92 129.00 L 402.96 131.31 L 406.33 133.88 L 409.08 136.70 L 410.83 139.09 L 412.14 141.58 L 413.05 144.19 L 413.56 146.94 Z" fill="#fffefa" fill-rule="nonzero" group-id="9" node-id="246" stroke="none" target-height="55.091812" target-width="86.79266" target-x="326.81946" target-y="123.79338"></path><g clip-path="url(#clip-path-4)" group-id="10" id="sillyvg_g_3" node-id="249"><path d="M 360.79 195.00 C 360.39 191.81 358.79 189.06 357.65 186.06 C 356.61 183.27 355.78 180.40 355.17 177.49 C 353.86 171.11 353.45 163.68 354.99 157.33 C 355.24 156.40 354.70 155.44 353.77 155.19 C 352.84 154.94 351.88 155.48 351.63 156.41 C 349.18 163.75 347.79 170.58 348.78 178.35 C 349.59 184.65 351.48 193.28 356.96 197.20 C 358.43 198.29 361.00 196.90 360.79 195.00 Z" fill="#b62725" fill-rule="nonzero" group-id="10" node-id="251" stroke="none" target-height="43.35405" target-width="13.209991" target-x="347.79" target-y="154.93594"></path><path d="M 380.73 174.53 C 378.61 169.11 376.20 163.01 375.41 157.23 C 375.08 154.77 371.10 155.40 371.14 157.81 C 371.25 164.59 371.06 170.81 372.85 177.43 C 374.34 182.99 376.03 190.67 381.95 192.91 C 383.68 193.36 385.46 192.35 385.95 190.62 C 387.15 185.00 382.70 179.58 380.73 174.53 Z" fill="#b62725" fill-rule="nonzero" group-id="10" node-id="253" stroke="none" target-height="38.594223" target-width="16.089996" target-x="371.06" target-y="154.77"></path><path d="M 405.42 166.81 C 402.26 160.19 398.42 153.54 392.52 149.03 C 391.52 148.25 389.88 149.55 390.31 150.73 C 392.70 157.21 396.07 163.27 397.92 169.97 C 398.87 173.38 399.45 176.89 400.06 180.37 C 400.62 183.60 401.11 187.01 403.52 189.37 C 404.30 190.12 405.38 190.48 406.46 190.34 C 407.53 190.21 408.49 189.59 409.05 188.66 C 413.00 182.59 408.18 172.58 405.42 166.81 Z" fill="#b62725" fill-rule="nonzero" group-id="10" node-id="255" stroke="none" target-height="42.232025" target-width="23.119995" target-x="389.88" target-y="148.25"></path></g><path d="M 413.56 146.94 L 413.61 149.75 L 413.25 152.48 L 412.46 155.18 L 411.23 157.88 L 409.09 161.19 L 406.32 164.38 L 402.82 167.46 L 398.98 170.13 L 394.60 172.54 L 389.63 174.69 L 384.48 176.38 L 378.94 177.67 L 372.97 178.54 L 366.95 178.89 L 361.26 178.73 L 355.88 178.11 L 350.58 177.01 L 345.81 175.52 L 341.51 173.68 L 337.47 171.37 L 334.11 168.80 L 331.35 165.98 L 329.60 163.59 L 328.29 161.10 L 327.38 158.49 L 326.87 155.73 L 326.82 152.93 L 327.19 150.20 L 327.97 147.50 L 329.20 144.80 L 331.34 141.49 L 334.12 138.29 L 337.61 135.21 L 341.45 132.55 L 345.83 130.13 L 350.80 127.99 L 355.95 126.30 L 361.49 125.01 L 367.46 124.14 L 373.48 123.79 L 379.17 123.94 L 384.55 124.57 L 389.85 125.67 L 394.62 127.16 L 398.92 129.00 L 402.96 131.31 L 406.33 133.88 L 409.08 136.70 L 410.83 139.09 L 412.14 141.58 L 413.05 144.19 L 413.56 146.94 Z" fill="none" group-id="11" node-id="260" stroke="#b62725" stroke-linecap="butt" stroke-width="5" target-height="55.091812" target-width="86.79266" target-x="326.81946" target-y="123.79338"></path><path d="M 395.79 220.22 C 395.30 225.62 391.24 227.34 385.79 227.88 C 382.98 228.16 379.49 228.65 376.69 228.21 C 373.37 227.69 371.53 223.08 370.91 219.71 C 369.42 211.62 368.58 205.71 371.72 200.62 C 374.51 196.06 381.24 194.62 386.40 195.32 C 389.61 195.76 392.32 199.10 393.16 202.16 C 394.32 206.23 396.14 216.46 395.79 220.22 Z M 377.13 215.79 C 377.83 220.65 380.52 222.90 383.91 222.46 C 387.59 221.98 389.15 218.40 388.69 214.41 C 384.86 215.08 381.01 215.54 377.13 215.79 Z M 376.71 211.06 C 380.40 210.58 384.40 209.90 388.09 209.43 C 387.63 205.56 386.24 202.43 381.75 203.10 C 378.49 203.58 376.50 205.14 376.71 211.06 Z" fill="url(#未命名的渐变_8)" fill-rule="nonzero" node-id="263" stroke="none" target-height="34.03" target-width="27.560028" target-x="368.58" target-y="194.62"></path><path d="M 388.10 272.26 C 386.10 272.73 384.10 272.26 383.91 271.17 C 383.49 268.54 384.81 268.31 387.02 267.81 C 388.63 267.44 388.37 265.56 388.02 263.81 C 385.69 264.29 384.10 263.64 383.79 262.31 C 383.36 260.43 384.43 259.43 387.48 258.93 C 387.29 257.56 386.54 253.93 388.35 253.50 C 390.79 253.01 390.80 254.50 391.53 258.03 L 394.47 257.66 C 393.94 254.06 393.65 252.55 395.42 252.09 C 397.19 251.63 398.32 255.39 398.67 257.22 C 398.88 258.35 402.86 255.16 403.59 258.40 C 403.96 260.06 403.41 260.78 399.98 261.48 C 399.03 261.62 399.55 265.68 400.44 265.48 C 403.25 264.95 404.01 266.30 404.10 267.33 C 404.21 268.52 403.71 269.90 400.75 270.40 C 400.84 275.33 400.91 278.00 398.75 278.10 C 397.11 278.17 396.35 275.70 395.92 271.29 C 393.62 271.01 392.70 271.56 392.37 274.96 C 392.21 276.59 390.29 279.65 387.84 278.86 C 385.39 278.07 388.59 272.10 388.10 272.26 Z M 395.48 262.26 C 394.21 262.26 392.79 262.41 392.48 263.01 C 392.17 263.61 392.61 265.78 392.87 266.92 C 393.64 266.83 395.28 266.49 396.16 266.38 C 396.11 265.66 395.56 262.91 395.48 262.22 Z" fill="url(#未命名的渐变_8-2)" fill-rule="nonzero" node-id="265" stroke="none" target-height="28.019989" target-width="20.850006" target-x="383.36" target-y="251.63"></path><path d="M 394.00 331.26 C 389.53 332.03 380.57 333.63 379.27 333.80 C 377.64 334.00 376.16 332.86 375.93 331.24 C 375.81 329.69 376.86 328.28 378.38 327.95 C 383.04 326.85 387.28 326.28 391.95 325.18 L 393.59 324.78 C 393.34 320.88 393.10 317.01 392.86 313.14 C 392.81 312.27 391.70 307.14 395.08 306.64 C 396.88 306.36 398.08 309.82 398.43 311.32 C 399.18 314.90 399.57 317.18 400.28 320.77 C 400.41 321.47 400.57 322.16 400.76 323.05 C 402.29 322.73 403.76 322.42 405.21 322.14 C 407.21 321.74 409.93 321.50 410.28 324.14 C 410.55 326.26 408.72 328.03 406.63 328.74 C 405.04 329.26 403.41 329.66 401.76 329.91 C 401.87 332.39 402.01 334.48 402.07 337.13 C 402.13 340.03 402.71 344.39 399.00 344.66 C 395.57 344.92 395.00 340.15 394.66 337.42 C 394.53 336.42 394.47 335.35 394.36 334.32 C 394.25 333.29 394.10 332.49 394.00 331.26 Z" fill="url(#未命名的渐变_8-3)" fill-rule="nonzero" node-id="267" stroke="none" target-height="38.560028" target-width="34.73587" target-x="375.81412" target-y="306.36"></path><path d="M 376.27 267.92 C 375.96 266.76 375.27 264.02 377.56 263.52 C 380.18 262.94 380.67 264.91 381.04 267.01 C 381.45 269.35 380.95 271.51 382.14 275.63 C 382.92 278.33 384.49 278.91 386.79 279.34 C 392.98 280.51 395.01 280.20 399.17 279.34 C 404.62 278.22 408.31 275.77 408.95 276.51 C 410.64 278.45 409.52 282.99 396.20 285.12 C 390.51 285.31 385.20 284.57 382.69 282.98 C 380.58 281.65 379.28 282.40 377.69 283.88 C 377.03 284.49 376.12 284.74 375.24 284.54 C 374.37 284.34 373.65 283.72 373.33 282.88 C 372.60 279.77 375.99 280.27 377.05 276.83 C 378.13 273.16 377.33 272.00 376.27 267.92 Z" fill="url(#未命名的渐变_8-4)" fill-rule="nonzero" node-id="269" stroke="none" target-height="22.369995" target-width="38.04001" target-x="372.6" target-y="262.94"></path><path d="M 383.68 317.84 C 385.55 317.62 387.25 318.94 387.50 320.81 C 387.75 322.67 386.46 324.40 384.60 324.68 C 382.74 324.96 380.99 323.70 380.68 321.84 C 380.54 320.91 380.78 319.96 381.34 319.21 C 381.91 318.46 382.75 317.97 383.68 317.84 Z" fill="url(#未命名的渐变_8-5)" fill-rule="nonzero" node-id="271" stroke="none" target-height="7.3388977" target-width="7.2116394" target-x="380.5403" target-y="317.6206"></path><path d="M 391.00 312.42 C 391.19 314.26 389.88 315.92 388.05 316.16 C 386.21 316.40 384.52 315.13 384.24 313.30 C 383.95 311.47 385.18 309.75 387.00 309.42 C 388.93 309.16 390.71 310.50 391.00 312.42 Z" fill="url(#未命名的渐变_8-6)" fill-rule="nonzero" node-id="273" stroke="none" target-height="7.232025" target-width="7.238159" target-x="383.9546" target-y="309.16345"></path><path d="M 397.94 259.12 L 398.10 260.91" fill="url(#未命名的渐变_8-7)" fill-rule="nonzero" node-id="275" stroke="none" target-height="1.7900085" target-width="0.16000366" target-x="397.94" target-y="259.12"></path><path d="M 379.48 258.99 L 379.29 260.23 L 378.67 261.25 L 377.72 261.97 L 376.50 262.28 L 375.26 262.09 L 374.24 261.47 L 373.52 260.51 L 373.21 259.30 L 373.40 258.05 L 374.02 257.03 L 374.98 256.32 L 376.19 256.01 L 377.44 256.20 L 378.46 256.82 L 379.17 257.77 L 379.48 258.99 Z" fill="url(#未命名的渐变_8-8)" fill-rule="nonzero" group-id="12" node-id="279" stroke="none" target-height="6.2725525" target-width="6.272583" target-x="373.2104" target-y="256.00708"></path><path d="M 414.06 375.00 C 413.22 373.52 410.86 372.22 409.37 371.36 C 407.71 370.36 401.61 366.36 398.88 364.95 L 399.31 364.29 C 400.63 362.10 397.44 359.70 395.38 361.55 C 392.95 363.74 390.79 366.06 388.58 368.41 C 386.37 370.76 383.88 372.89 382.36 375.47 C 380.64 378.38 383.94 380.72 386.44 378.59 C 388.69 376.55 390.75 374.31 392.59 371.90 C 393.74 370.53 395.28 368.98 396.31 367.58 C 398.06 369.00 405.90 374.46 408.81 376.16 C 409.81 376.74 411.62 377.77 412.71 377.60 C 413.32 377.59 413.87 377.24 414.16 376.70 C 414.44 376.16 414.40 375.51 414.06 375.00 Z" fill="url(#未命名的渐变_8-9)" fill-rule="nonzero" node-id="282" stroke="none" target-height="21.019989" target-width="33.79648" target-x="380.64" target-y="359.7"></path><path d="M 410.23 392.82 L 409.94 392.82 C 410.15 392.44 410.26 392.01 410.26 391.57 C 410.25 391.20 410.18 390.83 410.04 390.49 C 409.91 390.14 409.71 389.83 409.46 389.56 C 408.92 388.99 408.18 388.66 407.40 388.65 C 407.10 388.63 406.79 388.66 406.50 388.74 C 406.22 388.81 405.94 388.91 405.68 389.04 C 405.19 389.29 404.77 389.68 404.48 390.15 C 404.34 390.38 404.22 390.62 404.14 390.87 C 404.06 391.13 404.01 391.39 403.98 391.66 C 403.93 392.11 403.97 392.57 404.08 393.01 C 404.08 393.11 404.14 393.22 404.18 393.32 L 402.01 393.56 C 402.01 392.25 401.51 388.63 401.30 387.31 C 402.84 387.16 405.10 386.87 406.24 386.74 C 409.11 386.43 408.51 382.34 405.32 382.61 C 403.59 382.75 401.96 382.91 400.37 383.11 C 400.26 382.69 399.99 380.99 399.84 380.58 C 401.77 380.44 403.67 380.13 405.33 379.98 C 409.12 379.64 408.85 375.40 404.99 375.78 C 399.70 376.31 394.32 376.71 388.82 377.49 C 387.18 377.72 387.15 380.44 388.71 380.91 C 390.71 381.52 392.71 381.21 395.17 381.04 C 395.28 381.93 395.49 383.62 395.48 383.62 C 393.14 383.86 387.42 384.04 387.13 385.87 C 387.13 386.56 387.41 387.21 387.91 387.68 C 388.41 388.15 389.09 388.39 389.77 388.34 C 392.36 388.22 393.77 388.11 395.77 387.97 C 395.86 389.51 396.29 392.18 396.37 393.97 C 395.85 393.97 395.24 394.05 394.59 394.08 C 394.58 393.87 394.55 393.66 394.49 393.46 C 394.40 393.16 394.29 392.87 394.14 392.59 C 393.94 392.20 393.67 391.84 393.36 391.53 C 393.13 391.32 392.89 391.13 392.64 390.95 C 392.52 390.86 392.40 390.77 392.26 390.71 C 391.70 390.43 391.09 390.26 390.47 390.20 C 390.02 390.15 389.57 390.18 389.13 390.29 C 388.70 390.37 388.30 390.56 387.97 390.84 C 387.55 391.21 387.29 391.72 387.23 392.27 C 387.18 392.69 387.24 393.12 387.40 393.52 C 387.49 393.79 387.60 394.04 387.73 394.29 C 387.79 394.40 387.85 394.50 387.93 394.59 C 387.14 394.69 386.37 394.90 385.65 395.23 C 384.22 395.96 384.84 397.96 386.65 398.30 C 390.05 398.80 393.49 398.94 396.92 398.73 C 400.80 398.66 405.67 398.13 409.43 397.93 C 416.29 397.62 416.00 392.45 410.23 392.82 Z" fill="url(#未命名的渐变_8-10)" fill-rule="nonzero" node-id="284" stroke="none" target-height="23.542877" target-width="32.070007" target-x="384.22" target-y="375.4"></path><path d="M 406.21 212.67 C 406.21 225.91 395.48 236.64 382.24 236.64 C 369.00 236.64 358.27 225.91 358.27 212.67 C 358.27 199.43 369.00 188.70 382.24 188.70 C 395.48 188.70 406.21 199.43 406.21 212.67 Z" fill="none" node-id="286" stroke="#ffd283" stroke-linecap="butt" stroke-width="2" target-height="47.940002" target-width="47.940002" target-x="358.27" target-y="188.7"></path><path d="M 412.86 268.68 C 412.86 281.92 402.13 292.65 388.89 292.65 C 375.65 292.65 364.92 281.92 364.92 268.68 C 364.92 255.44 375.65 244.71 388.89 244.71 C 402.13 244.71 412.86 255.44 412.86 268.68 Z" fill="none" node-id="288" stroke="#ffd283" stroke-linecap="butt" stroke-width="2" target-height="47.939987" target-width="47.939972" target-x="364.92" target-y="244.71"></path><path d="M 418.67 324.72 C 418.67 337.96 407.94 348.69 394.70 348.69 C 381.46 348.69 370.73 337.96 370.73 324.72 C 370.73 311.48 381.46 300.75 394.70 300.75 C 407.94 300.75 418.67 311.48 418.67 324.72 Z" fill="none" node-id="290" stroke="#ffd283" stroke-linecap="butt" stroke-width="2" target-height="47.940002" target-width="47.940002" target-x="370.73" target-y="300.75"></path><path d="M 422.83 380.72 C 422.83 393.96 412.10 404.69 398.86 404.69 C 385.62 404.69 374.89 393.96 374.89 380.72 C 374.89 367.48 385.62 356.75 398.86 356.75 C 412.10 356.75 422.83 367.48 422.83 380.72 Z" fill="none" node-id="292" stroke="#ffd283" stroke-linecap="butt" stroke-width="2" target-height="47.940002" target-width="47.939972" target-x="374.89" target-y="356.75"></path></svg>